<svg width="56" height="45" viewBox="0 0 56 45" fill="none" xmlns="http://www.w3.org/2000/svg">
<path d="M15.2124 2C12.0674 6.61852 8.03076 10.5779 5.19969 15.4001C4.05108 17.3566 3.33307 20.6123 2.13458 22.2813C0.54487 24.4951 13.5318 22.6399 15.1102 22.54C18.955 22.2966 20.7296 22.3169 20.7296 17.8318C20.7296 15.4013 19.1135 13.5689 16.5917 15.5553C9.00474 21.5317 24.8317 23.7383 28.0858 20.6257C32.5297 16.375 20.3036 15.8549 18.4307 15.5036C15.3074 14.9178 6.63657 13.3167 8.97999 19.4874C10.9958 24.7956 31.0103 18.4057 34.1138 16.9005C42.7783 12.6984 29.5604 17.7513 27.7282 21.0913C26.874 22.6485 30.0971 22.4882 30.8444 22.4882C34.581 22.4882 28.689 28.8721 27.8815 29.9385C24.3927 34.5453 8.53497 53.093 9.89952 36.5092C10.8868 24.5104 29.7359 23.4847 38.5583 22.0226C41.3679 21.5569 48.2605 18.0466 46.9873 20.6257C46.4994 21.6138 40.3938 27.5593 42.2875 28.8003C46.2083 31.3697 56.9674 19.6439 53.2197 16.5384C51.1749 14.844 44.6808 15.916 42.3896 16.1762C33.3479 17.2032 25.4957 22.3816 17.971 27.1446" stroke="white" stroke-width="3" stroke-linecap="round"/>
</svg>
